<svg width="72" height="64" viewBox="0 0 72 64" fill="none" xmlns="http://www.w3.org/2000/svg">
<path d="M37.4533 1.06462L37.4538 1.06507L70.1671 31.8397C70.1672 31.8398 70.1672 31.8398 70.1673 31.8398C71.9431 33.5118 71.943 36.2071 70.1743 37.8788L70.1736 37.8796C69.3176 38.6921 68.1479 39.1479 66.92 39.1479H63.4732H62.9732V39.6479V61.6074C62.9732 62.6267 62.0902 63.5 60.9317 63.5H40.3137V47.2518V46.7518H39.8137H30.9186H30.4186V47.2518V63.5H11.0713C9.9128 63.5 9.0298 62.6267 9.0298 61.6074V39.6479V39.1479H8.5298H5.08294C2.52666 39.1479 0.5 37.1979 0.5 34.8627C0.5 33.7352 0.978922 32.6464 1.83584 31.8397L34.5492 1.06507L34.5497 1.06462C34.7375 0.887416 34.9623 0.74535 35.2118 0.647925C35.4613 0.550486 35.7297 0.5 36.0015 0.5C36.2732 0.5 36.5417 0.550485 36.7912 0.647925C37.0407 0.74535 37.2655 0.887416 37.4533 1.06462Z" stroke="#0D99FF"/>
</svg>
