<svg width="196" height="49" viewBox="0 0 196 49" fill="none" xmlns="http://www.w3.org/2000/svg">
<path d="M37.5456 1.45454V48H32.091L6.72738 11.4545H6.27284V48H0.636475V1.45454H6.09102L31.5456 38.0909H32.0001V1.45454H37.5456Z" fill="#0D99FF"/>
<path d="M62.7331 48.7273C59.3694 48.7273 56.4679 47.9848 54.0285 46.5C51.6043 45 49.7331 42.9091 48.4149 40.2273C47.1119 37.5303 46.4603 34.3939 46.4603 30.8182C46.4603 27.2424 47.1119 24.0909 48.4149 21.3636C49.7331 18.6212 51.5664 16.4848 53.9149 14.9545C56.2785 13.4091 59.0361 12.6364 62.1876 12.6364C64.0058 12.6364 65.8012 12.9394 67.574 13.5455C69.3467 14.1515 70.9603 15.1364 72.4149 16.5C73.8694 17.8485 75.0285 19.6364 75.8922 21.8636C76.7558 24.0909 77.1876 26.8333 77.1876 30.0909V32.3636H50.2785V27.7273H71.7331C71.7331 25.7576 71.3391 24 70.5513 22.4545C69.7785 20.9091 68.6725 19.6894 67.2331 18.7955C65.8088 17.9015 64.127 17.4545 62.1876 17.4545C60.0512 17.4545 58.2028 17.9848 56.6422 19.0455C55.0967 20.0909 53.9073 21.4545 53.074 23.1364C52.2406 24.8182 51.824 26.6212 51.824 28.5455V31.6364C51.824 34.2727 52.2785 36.5076 53.1876 38.3409C54.1119 40.1591 55.3922 41.5455 57.0285 42.5C58.6649 43.4394 60.5664 43.9091 62.7331 43.9091C64.1422 43.9091 65.4149 43.7121 66.5513 43.3182C67.7028 42.9091 68.6952 42.303 69.5285 41.5C70.3619 40.6818 71.0058 39.6667 71.4603 38.4545L76.6422 39.9091C76.0967 41.6667 75.18 43.2121 73.8922 44.5455C72.6043 45.8636 71.0134 46.8939 69.1194 47.6364C67.2255 48.3636 65.0967 48.7273 62.7331 48.7273Z" fill="#0D99FF"/>
<path d="M99.5285 48.7273C96.2558 48.7273 93.4376 47.9545 91.074 46.4091C88.7103 44.8636 86.8922 42.7348 85.6194 40.0227C84.3467 37.3106 83.7103 34.2121 83.7103 30.7273C83.7103 27.1818 84.3619 24.053 85.6649 21.3409C86.9831 18.6136 88.8164 16.4848 91.1649 14.9545C93.5285 13.4091 96.2861 12.6364 99.4376 12.6364C101.892 12.6364 104.104 13.0909 106.074 14C108.044 14.9091 109.657 16.1818 110.915 17.8182C112.172 19.4545 112.953 21.3636 113.256 23.5455H107.892C107.483 21.9545 106.574 20.5455 105.165 19.3182C103.771 18.0758 101.892 17.4545 99.5285 17.4545C97.4376 17.4545 95.6043 18 94.0285 19.0909C92.4679 20.1667 91.2482 21.6894 90.3694 23.6591C89.5058 25.6136 89.074 27.9091 89.074 30.5455C89.074 33.2424 89.4982 35.5909 90.3467 37.5909C91.2103 39.5909 92.4225 41.1439 93.9831 42.25C95.5588 43.3561 97.4073 43.9091 99.5285 43.9091C100.922 43.9091 102.188 43.6667 103.324 43.1818C104.46 42.697 105.422 42 106.21 41.0909C106.998 40.1818 107.559 39.0909 107.892 37.8182H113.256C112.953 39.8788 112.203 41.7348 111.006 43.3864C109.824 45.0227 108.256 46.3258 106.301 47.2955C104.362 48.25 102.104 48.7273 99.5285 48.7273Z" fill="#0D99FF"/>
<path d="M124.722 13.0909L133.085 27.3636L141.449 13.0909H147.631L136.358 30.5455L147.631 48H141.449L133.085 34.4545L124.722 48H118.54L129.631 30.5455L118.54 13.0909H124.722Z" fill="#0D99FF"/>
<path d="M155.284 48V13.0909H160.648V48H155.284ZM158.011 7.27273C156.966 7.27273 156.064 6.91667 155.307 6.20454C154.564 5.49242 154.193 4.63636 154.193 3.63636C154.193 2.63636 154.564 1.7803 155.307 1.06818C156.064 0.35606 156.966 0 158.011 0C159.057 0 159.951 0.35606 160.693 1.06818C161.451 1.7803 161.83 2.63636 161.83 3.63636C161.83 4.63636 161.451 5.49242 160.693 6.20454C159.951 6.91667 159.057 7.27273 158.011 7.27273Z" fill="#0D99FF"/>
<path d="M195.199 20.9091L190.381 22.2727C190.078 21.4697 189.631 20.6894 189.04 19.9318C188.464 19.1591 187.676 18.5227 186.676 18.0227C185.676 17.5227 184.396 17.2727 182.835 17.2727C180.699 17.2727 178.919 17.7652 177.494 18.75C176.085 19.7197 175.381 20.9545 175.381 22.4545C175.381 23.7879 175.866 24.8409 176.835 25.6136C177.805 26.3864 179.32 27.0303 181.381 27.5455L186.563 28.8182C189.684 29.5758 192.01 30.7348 193.54 32.2955C195.07 33.8409 195.835 35.8333 195.835 38.2727C195.835 40.2727 195.26 42.0606 194.108 43.6364C192.972 45.2121 191.381 46.4545 189.335 47.3636C187.29 48.2727 184.911 48.7273 182.199 48.7273C178.638 48.7273 175.691 47.9545 173.358 46.4091C171.025 44.8636 169.547 42.6061 168.926 39.6364L174.017 38.3636C174.502 40.2424 175.419 41.6515 176.767 42.5909C178.131 43.5303 179.911 44 182.108 44C184.608 44 186.593 43.4697 188.063 42.4091C189.547 41.3333 190.29 40.0455 190.29 38.5455C190.29 37.3333 189.866 36.3182 189.017 35.5C188.169 34.6667 186.866 34.0455 185.108 33.6364L179.29 32.2727C176.093 31.5152 173.744 30.3409 172.244 28.75C170.76 27.1439 170.017 25.1364 170.017 22.7273C170.017 20.7576 170.57 19.0152 171.676 17.5C172.797 15.9848 174.32 14.7955 176.244 13.9318C178.184 13.0682 180.381 12.6364 182.835 12.6364C186.29 12.6364 189.002 13.3939 190.972 14.9091C192.957 16.4242 194.366 18.4242 195.199 20.9091Z" fill="#0D99FF"/>
</svg>
