<svg width="72" height="64" viewBox="0 0 72 64" fill="none" xmlns="http://www.w3.org/2000/svg">
<path d="M36.0729 52.252C27.5791 52.252 20.6865 54.2289 20.5469 56.6815H20.54V59.6379H20.5412C20.8001 62.0582 27.6472 64.0009 36.0627 64.0009C44.6406 64.0009 51.591 61.9857 51.591 59.4958V56.7571C51.591 54.2692 44.6394 52.252 36.0627 52.252" fill="#F0B961"/>
<path d="M36.0729 59.821C28.3343 59.821 21.9244 58.1786 20.7456 56.0293C20.6295 56.2304 20.5618 56.4507 20.5469 56.6762H20.54V59.6326H20.5412C20.8001 62.0529 27.6472 63.9956 36.0627 63.9956C44.6406 63.9956 51.591 61.9804 51.591 59.4905V56.7518C51.591 56.5059 51.5217 56.2671 51.3945 56.0333C50.2111 58.1786 43.7945 59.821 36.0627 59.821" fill="#B88848"/>
<path d="M20.4638 16.899C14.0631 16.8325 7.47832 15.6646 1.16727 16.9433C0.557403 17.0672 -0.083128 17.5922 0.00886314 18.1132C1.33649 25.7238 12.7934 41.8902 23.8516 31.7484C25.152 30.5564 22.9283 28.8253 21.6166 30.0294C12.9274 37.9968 4.16663 23.8466 3.16836 18.1132C2.77768 18.5041 2.39382 18.8961 2.00768 19.287C7.99051 18.0728 14.3879 19.2669 20.4627 19.3294C22.5013 19.3505 22.5013 16.9171 20.4627 16.899M51.5364 16.899C57.9372 16.8325 64.5219 15.6646 70.8318 16.9433C71.4417 17.0672 72.0822 17.5922 71.9913 18.1132C70.6637 25.7238 59.2069 41.8902 48.1486 31.7484C46.8482 30.5564 49.0708 28.8253 50.3837 30.0294C59.0706 37.9968 67.8324 23.8466 68.8319 18.1132C69.2203 18.5041 69.6064 18.8961 69.9914 19.287C64.0097 18.0728 57.6123 19.2669 51.5364 19.3294C49.499 19.3505 49.5012 16.9171 51.5364 16.899Z" fill="#D29F54"/>
<path d="M36.0727 14.8968C50.2605 14.8968 61.762 11.5621 61.762 7.44842C61.762 3.33477 50.2605 0 36.0727 0C21.8848 0 10.3833 3.33477 10.3833 7.44842C10.3833 11.5621 21.8848 14.8968 36.0727 14.8968Z" fill="#D29F54"/>
<path d="M26.0958 8.21018C26.0958 4.47389 35.5833 1.38247 47.9556 0.843388C44.3997 0.30632 40.3601 0 36.0717 0C21.8823 0 10.3823 3.33325 10.3823 7.44842C10.3823 11.5616 21.8812 14.8968 36.0717 14.8968C37.3732 14.8968 38.6509 14.8686 39.9012 14.8162C31.6993 13.5708 26.0958 11.0789 26.0958 8.21018Z" fill="#BB8947"/>
<path d="M61.7576 12.9398C61.7576 11.4173 61.5861 9.93405 61.2659 8.49414C58.9411 11.914 48.5461 14.4956 36.0649 14.4956C23.587 14.4956 13.192 11.914 10.8638 8.49414C10.5389 9.95846 10.3753 11.4474 10.3755 12.9398V12.9741C10.3755 20.9394 14.9637 27.9475 21.9073 32.0385C22.8329 32.8899 29.7538 39.4909 29.9707 47.3525V54.6991C29.9707 56.7506 32.3773 58.4163 35.3471 58.4163C35.5322 58.4163 35.7128 58.4082 35.8911 58.3951C36.1807 58.4304 36.476 58.4505 36.7769 58.4505C39.7479 58.4505 42.1579 56.7889 42.1579 54.7344V47.3877C42.3884 38.9589 50.3292 31.979 50.3292 31.979C57.2115 27.88 61.7542 20.9001 61.7542 12.9731V12.9398" fill="#F0B961"/>
<path d="M58.5792 15.2781C58.5792 13.9581 58.4077 12.6693 58.0897 11.4219C57.5116 12.1595 56.4327 12.8527 54.9518 13.4734C55.0415 14.2312 55.0892 14.998 55.0892 15.7769V15.8131C55.0892 21.9093 52.2874 27.4291 47.7549 31.4677C54.2987 27.8735 58.578 21.9798 58.578 15.3053V15.2751" fill="white"/>
<path d="M29.9785 54.5679C30.3533 54.5417 30.7463 54.6062 31.1142 54.8148C32.6281 55.6683 36.335 57.4175 38.2248 56.3655C39.5547 55.628 40.5189 54.7463 42.1657 54.4269V47.3946C42.1804 46.8575 42.2259 46.3275 42.2985 45.8055C41.0811 38.9123 35.297 33.3986 34.452 32.6257C27.5061 28.5368 22.9225 21.5216 22.9225 13.5623L22.9248 13.5442L22.9225 13.5261L22.9248 13.4505C16.7829 12.3885 12.3004 10.6039 10.8716 8.5C10.5467 9.96432 10.3831 11.4532 10.3833 12.9457V12.9799C10.3833 20.9453 14.9715 27.9533 21.9151 32.0443C22.8407 32.8958 29.7616 39.4968 29.9785 47.3583V54.5679Z" fill="#DDA653"/>
<path d="M36.7852 55.1119C36.4842 55.1119 36.189 55.0927 35.8994 55.0695C35.7182 55.0784 35.5368 55.0831 35.3554 55.0836C32.3855 55.0836 29.979 53.81 29.979 52.2441V54.2957C29.979 55.8666 32.3855 57.1352 35.3554 57.1352C35.5405 57.1352 35.7211 57.1312 35.8994 57.1211C36.189 57.1463 36.4842 57.1634 36.7852 57.1634C39.7562 57.1634 42.1661 55.8898 42.1661 54.3239V52.2724C42.1661 53.8382 39.7562 55.1119 36.7852 55.1119Z" fill="#B88848"/>
<path d="M43.7625 35.6684C43.7625 35.6684 37.0642 41.7344 36.8677 49.0729V53.5267C38.586 53.1176 39.8125 52.0757 39.8125 50.8484V45.1905C39.9522 40.63 43.2968 36.6236 45.2763 34.6406C44.7869 34.9993 44.286 35.348 43.7625 35.6684Z" fill="white"/>
</svg>
